<?xml version="1.0" encoding="UTF-8"?>
<svg id="Capa_1" data-name="Capa 1" xmlns="http://www.w3.org/2000/svg" viewBox="0 0 141.73 141.73">
  <defs>
    <style>
      .cls-1 {
        fill: #aa9388;
      }

      .cls-2 {
        fill: #fff;
      }

      .cls-3 {
        fill: #492e21;
      }

      .cls-4 {
        fill: #c6b4ab;
      }

      .cls-5 {
        fill: #765b4e;
      }

      .cls-6 {
        fill: #5f4436;
      }

      .cls-7 {
        fill: #e3d7d1;
      }

      .cls-8 {
        fill: #907669;
      }
    </style>
  </defs>
  <path class="cls-2" d="M128.61,128.61c-10.15,11.01-33.94,11.36-57.74,11.8-23.8-.45-47.6-.79-57.74-11.8C2.11,118.46,1.77,94.66,1.32,70.87c.45-23.8.79-47.6,11.8-57.74C23.27,2.11,47.07,1.77,70.87,1.32c23.8.45,47.6.79,57.74,11.8,11.01,10.15,11.36,33.94,11.8,57.74-.45,23.8-.79,47.6-11.8,57.74Z"/>
  <g>
    <path class="cls-3" d="M37.3,51.79c-7.97,0-14.5-6.52-14.5-14.5s6.52-14.5,14.5-14.5,14.5,6.52,14.5,14.5-6.52,14.5-14.5,14.5Z"/>
    <path class="cls-6" d="M70.87,51.79c-7.97,0-14.5-6.52-14.5-14.5s6.52-14.5,14.5-14.5,14.5,6.52,14.5,14.5-6.52,14.5-14.5,14.5Z"/>
    <path class="cls-5" d="M104.44,51.79c-7.97,0-14.5-6.52-14.5-14.5s6.52-14.5,14.5-14.5,14.5,6.52,14.5,14.5-6.52,14.5-14.5,14.5Z"/>
    <path class="cls-8" d="M104.44,85.36c-7.97,0-14.5-6.52-14.5-14.5s6.52-14.5,14.5-14.5,14.5,6.52,14.5,14.5-6.52,14.5-14.5,14.5Z"/>
    <path class="cls-7" d="M37.3,118.93c-7.97,0-14.5-6.52-14.5-14.5s6.52-14.5,14.5-14.5,14.5,6.52,14.5,14.5-6.52,14.5-14.5,14.5Z"/>
    <path class="cls-4" d="M70.87,118.93c-7.97,0-14.5-6.52-14.5-14.5s6.52-14.5,14.5-14.5,14.5,6.52,14.5,14.5-6.52,14.5-14.5,14.5Z"/>
    <path class="cls-1" d="M104.44,118.93c-7.97,0-14.5-6.52-14.5-14.5s6.52-14.5,14.5-14.5,14.5,6.52,14.5,14.5-6.52,14.5-14.5,14.5Z"/>
  </g>
</svg>